<svg width="40" height="40" viewBox="0 0 40 40" fill="none" xmlns="http://www.w3.org/2000/svg">
<g clip-path="url(#clip0_5:3)">
<path d="M19.2 2C8.596 2 0 10.596 0 21.2C0 31.804 8.596 40.4 19.2 40.4C29.804 40.4 38.4 31.804 38.4 21.2C38.4 10.596 29.804 2 19.2 2ZM26.584 23.662C26.584 23.662 28.282 25.338 28.7 26.116C28.712 26.132 28.718 26.148 28.722 26.156C28.892 26.442 28.932 26.664 28.848 26.83C28.708 27.106 28.228 27.242 28.064 27.254H25.064C24.856 27.254 24.42 27.2 23.892 26.836C23.486 26.552 23.086 26.086 22.696 25.632C22.114 24.956 21.61 24.372 21.102 24.372C21.0375 24.3719 20.9733 24.382 20.912 24.402C20.528 24.526 20.036 25.074 20.036 26.534C20.036 26.99 19.676 27.252 19.422 27.252H18.048C17.58 27.252 15.142 27.088 12.982 24.81C10.338 22.02 7.958 16.424 7.938 16.372C7.788 16.01 8.098 15.816 8.436 15.816H11.466C11.87 15.816 12.002 16.062 12.094 16.28C12.202 16.534 12.598 17.544 13.248 18.68C14.302 20.532 14.948 21.284 15.466 21.284C15.5631 21.2829 15.6585 21.2581 15.744 21.212C16.42 20.836 16.294 18.426 16.264 17.926C16.264 17.832 16.262 16.848 15.916 16.376C15.668 16.034 15.246 15.904 14.99 15.856C15.0936 15.713 15.2301 15.5971 15.388 15.518C15.852 15.286 16.688 15.252 17.518 15.252H17.98C18.88 15.264 19.112 15.322 19.438 15.404C20.098 15.562 20.112 15.988 20.054 17.446C20.036 17.86 20.018 18.328 20.018 18.88C20.018 19 20.012 19.128 20.012 19.264C19.992 20.006 19.968 20.848 20.492 21.194C20.5603 21.2369 20.6393 21.2597 20.72 21.26C20.902 21.26 21.45 21.26 22.934 18.714C23.3917 17.8945 23.7894 17.043 24.124 16.166C24.154 16.114 24.242 15.954 24.346 15.892C24.4228 15.8529 24.5079 15.833 24.594 15.834H28.156C28.544 15.834 28.81 15.892 28.86 16.042C28.948 16.28 28.844 17.006 27.218 19.208L26.492 20.166C25.018 22.098 25.018 22.196 26.584 23.662V23.662Z" fill="black"/>
</g>
<defs>
<clipPath id="clip0_5:3">
<rect width="40" height="40" fill="white"/>
</clipPath>
</defs>
</svg>
