<svg width="40" height="40" viewBox="0 0 40 40" fill="none" xmlns="http://www.w3.org/2000/svg">
<path d="M19.1663 0C9.06765 0 0.784812 7.776 0 17.6582L10.3103 21.913C11.2127 21.2965 12.281 20.9671 13.3745 20.9683C13.4765 20.9683 13.5746 20.9741 13.6765 20.9779L18.2623 14.3501V14.256C18.2623 10.2624 21.5131 7.0176 25.5141 7.0176C29.5132 7.0176 32.7659 10.2662 32.7659 14.2598C32.7659 18.2534 29.5112 21.5002 25.5141 21.5002H25.3467L18.8124 26.1581C18.8124 26.2406 18.8182 26.327 18.8182 26.4134C18.8192 27.1265 18.6794 27.8327 18.4068 28.4918C18.1342 29.1508 17.7341 29.7498 17.2294 30.2544C16.7247 30.7591 16.1254 31.1595 15.4656 31.4327C14.8058 31.706 14.0985 31.8468 13.3841 31.847C12.1275 31.8425 10.9107 31.4061 9.93859 30.6113C8.96644 29.8165 8.29819 28.7117 8.04625 27.4829L0.663628 24.432C2.94882 32.4902 10.3622 38.4 19.1683 38.4C29.7902 38.4 38.4 29.8042 38.4 19.2C38.4 8.59776 29.7882 0 19.1663 0ZM9.69089 28.1606C10.1102 29.0285 10.8354 29.7581 11.7953 30.1594C12.7861 30.5268 13.881 30.4971 14.8503 30.0764C15.8196 29.6558 16.5881 28.8768 16.9946 27.9029C17.4011 26.929 17.4141 25.8358 17.0307 24.8526C16.6474 23.8694 15.8975 23.0725 14.9384 22.6291C13.9778 22.2302 12.9008 22.2131 11.928 22.5811L14.369 23.5891C14.7336 23.741 15.0647 23.9631 15.3433 24.2427C15.6219 24.5224 15.8426 24.8541 15.9926 25.219C16.1427 25.5838 16.2193 25.9746 16.2179 26.369C16.2166 26.7634 16.1373 27.1536 15.9848 27.5174C15.8332 27.8815 15.6112 28.2121 15.3315 28.4905C15.0519 28.7689 14.72 28.9895 14.3549 29.1398C13.9897 29.2901 13.5985 29.3672 13.2036 29.3665C12.8086 29.3658 12.4176 29.2875 12.053 29.136L9.69089 28.1606V28.1606ZM30.3499 14.2502C30.3479 12.9714 29.8379 11.7455 28.9317 10.8414C28.0256 9.93729 26.7972 9.42872 25.516 9.4272C24.2631 9.47042 23.076 9.99759 22.205 10.8975C21.334 11.7975 20.8472 12.9999 20.8472 14.2512C20.8472 15.5025 21.334 16.7049 22.205 17.6049C23.076 18.5048 24.2631 19.032 25.516 19.0752C26.7977 19.0747 28.0267 18.5661 28.9328 17.6613C29.839 16.7565 30.348 15.5296 30.348 14.2502H30.3499ZM25.5256 10.6176C26.0164 10.5953 26.5065 10.6726 26.9665 10.8447C27.4265 11.0168 27.8467 11.2803 28.2018 11.6191C28.5569 11.958 28.8394 12.3652 29.0324 12.8161C29.2254 13.267 29.3247 13.7523 29.3245 14.2427C29.3242 14.733 29.2243 15.2182 29.0309 15.6689C28.8374 16.1196 28.5544 16.5265 28.199 16.865C27.8436 17.2034 27.4231 17.4664 26.9629 17.6381C26.5027 17.8098 26.0125 17.8865 25.5218 17.8637C24.588 17.8203 23.707 17.4193 23.0617 16.7442C22.4165 16.0692 22.0568 15.1718 22.0572 14.2388C22.0577 13.3058 22.4185 12.4088 23.0644 11.7344C23.7103 11.06 24.5918 10.66 25.5256 10.6176V10.6176Z" fill="black"/>
</svg>
